<svg xmlns="http://www.w3.org/2000/svg" width="96" height="96" viewBox="0 0 20 20"><path fill="#ffffff" d="M8.077 2c.532 0 1.024.172 1.423.464V6h-.587a1.5 1.5 0 1 0 0 1H9.5v10.232c-.53.477-1.23.768-2 .768a3 3 0 0 1-2.97-2.589A3.245 3.245 0 0 1 2.903 10H5.5a.5.5 0 0 1 .5.5v.587a1.5 1.5 0 1 0 1 0V10.5A1.5 1.5 0 0 0 5.5 9H3.507A2.48 2.48 0 0 1 3 7.5v-.198c0-1.286.908-2.394 2.169-2.646l.406-.082l.125-.626A2.424 2.424 0 0 1 8.077 2m3.846 0c1.155 0 2.15.816 2.377 1.948l.125.626l.406.082A2.7 2.7 0 0 1 17 7.302V7.5a2.5 2.5 0 0 1-.809 1.836a3.245 3.245 0 0 1-.72 6.075A3 3 0 0 1 12.5 18c-.77 0-1.47-.291-2-.768V13h2a1.5 1.5 0 0 0 1.5-1.5v-.588A1.498 1.498 0 0 0 13.5 8a1.5 1.5 0 0 0-.5 2.912v.588a.5.5 0 0 1-.5.5h-2V2.464c.4-.292.89-.464 1.423-.464M6.5 12a.5.5 0 1 1 0 1a.5.5 0 0 1 0-1m7-3a.5.5 0 1 1 0 1a.5.5 0 0 1 0-1m-6-3a.5.5 0 1 1 0 1a.5.5 0 0 1 0-1"/></svg>