<svg width="139" height="26" viewBox="0 0 139 26" fill="none" xmlns="http://www.w3.org/2000/svg">
<path d="M11.4981 5.15838C12.3255 5.15838 12.9963 4.48763 12.9963 3.66024C12.9963 2.83285 12.3255 2.16211 11.4981 2.16211C10.6707 2.16211 10 2.83285 10 3.66024C10 4.48763 10.6707 5.15838 11.4981 5.15838Z" fill="white"/>
<path d="M9.23836 18.1056C10.0657 18.1056 10.7365 17.4348 10.7365 16.6075C10.7365 15.7802 10.0657 15.1094 9.23836 15.1094C8.41097 15.1094 7.74023 15.7802 7.74023 16.6075C7.74023 17.4348 8.41097 18.1056 9.23836 18.1056Z" fill="white"/>
<path d="M7.9901 5.3718C8.26589 5.3718 8.48947 5.14821 8.48947 4.87242C8.48947 4.59663 8.26589 4.37305 7.9901 4.37305C7.71431 4.37305 7.49072 4.59663 7.49072 4.87242C7.49072 5.14821 7.71431 5.3718 7.9901 5.3718Z" fill="white"/>
<path d="M7.36574 12.3643C7.5726 12.3643 7.74027 12.1966 7.74027 11.9898C7.74027 11.7829 7.5726 11.6152 7.36574 11.6152C7.15889 11.6152 6.99121 11.7829 6.99121 11.9898C6.99121 12.1966 7.15889 12.3643 7.36574 12.3643Z" fill="white"/>
<path d="M16.3745 5.91111C16.5814 5.91111 16.7491 5.74351 16.7491 5.53661C16.7491 5.32971 16.5814 5.16211 16.3745 5.16211C16.1677 5.16211 16 5.32971 16 5.53661C16 5.74351 16.1677 5.91111 16.3745 5.91111Z" fill="white"/>
<path d="M12.3745 18.9111C12.5814 18.9111 12.7491 18.7435 12.7491 18.5366C12.7491 18.3297 12.5814 18.1621 12.3745 18.1621C12.1677 18.1621 12 18.3297 12 18.5366C12 18.7435 12.1677 18.9111 12.3745 18.9111Z" fill="white"/>
<path d="M10.4993 13.1608C10.7751 13.1608 10.9987 12.9372 10.9987 12.6615C10.9987 12.3857 10.7751 12.1621 10.4993 12.1621C10.2235 12.1621 10 12.3857 10 12.6615C10 12.9372 10.2235 13.1608 10.4993 13.1608Z" fill="white"/>
<path d="M12.8739 7.90991C13.3565 7.90991 13.7478 7.51871 13.7478 7.03601C13.7478 6.55341 13.3565 6.16211 12.8739 6.16211C12.3913 6.16211 12 6.55341 12 7.03601C12 7.51871 12.3913 7.90991 12.8739 7.90991Z" fill="white"/>
<path d="M12.749 11.6602C13.1628 11.6602 13.4981 11.3249 13.4981 10.9112C13.4981 10.4975 13.1628 10.1621 12.749 10.1621C12.3353 10.1621 12 10.4975 12 10.9112C12 11.3249 12.3353 11.6602 12.749 11.6602Z" fill="white"/>
<path d="M15.0599 17.282C16.1976 17.282 17.1198 16.3597 17.1198 15.222C17.1198 14.0844 16.1976 13.1621 15.0599 13.1621C13.9222 13.1621 13 14.0844 13 15.222C13 16.3597 13.9222 17.282 15.0599 17.282Z" fill="white"/>
<path d="M9.1236 10.4093C9.7442 10.4093 10.2472 9.90625 10.2472 9.2857C10.2472 8.66515 9.7442 8.16211 9.1236 8.16211C8.5031 8.16211 8 8.66515 8 9.2857C8 9.90625 8.5031 10.4093 9.1236 10.4093Z" fill="white"/>
<path d="M16.8727 11.4074C17.9069 11.4074 18.7453 10.5689 18.7453 9.53471C18.7453 8.50051 17.9069 7.66211 16.8727 7.66211C15.8384 7.66211 15 8.50051 15 9.53471C15 10.5689 15.8384 11.4074 16.8727 11.4074Z" fill="white"/>
<path d="M4.1523 21.2273C3.69621 21.2376 3.24109 21.1808 2.80149 21.0588C2.4883 20.9704 2.20543 20.7976 1.98377 20.5594C1.7492 20.2889 1.58269 19.966 1.49813 19.6181C1.37485 19.1099 1.31779 18.5879 1.32834 18.065V13.9452C1.32834 13.1787 1.20974 12.6206 0.966291 12.2411C0.736285 11.9008 0.394429 11.6517 0 11.537V9.45581C0.665417 9.23231 1.33208 8.66307 1.33208 7.2823V3.16245C1.33208 1.99142 1.54806 1.16495 1.97253 0.691799C2.397 0.218639 3.14481 0.00390625 4.21722 0.00390625H5.61797V2.05884H5.57053C5.29386 2.05568 5.01731 2.07153 4.74281 2.10628C4.49456 2.13347 4.26082 2.23683 4.07365 2.40216C3.8983 2.57787 3.78332 2.80478 3.74531 3.0501C3.69971 3.31852 3.67923 3.59061 3.68414 3.86283V7.50078C3.68777 7.86427 3.6665 8.22758 3.62047 8.58817C3.59073 8.81994 3.52634 9.04593 3.42946 9.25861C3.33975 9.44671 3.2152 9.61621 3.06242 9.75791C2.84839 9.95431 2.62151 10.1361 2.38327 10.3023L1.9176 10.6318L2.39326 10.9465C2.62656 11.0951 2.84226 11.2698 3.0362 11.4671C3.19194 11.6306 3.32087 11.8176 3.41822 12.0214C3.52062 12.242 3.58882 12.4769 3.62047 12.718C3.66451 13.0557 3.68536 13.3961 3.68289 13.7367V17.3747C3.67851 17.6398 3.699 17.9049 3.74406 18.1662C3.78042 18.4049 3.88838 18.6268 4.05368 18.8029C4.23014 18.9713 4.45421 19.081 4.69537 19.1175C4.97761 19.1634 5.2634 19.1839 5.54931 19.1787H5.61797V21.2273H4.1523Z" fill="white"/>
<path d="M20.8167 21.2272C21.2728 21.2374 21.728 21.1806 22.1675 21.0586C22.4808 20.9702 22.7637 20.7975 22.9853 20.5593C23.2181 20.289 23.3833 19.9673 23.4672 19.6204C23.5904 19.1122 23.6476 18.5902 23.637 18.0674V13.9475C23.637 13.181 23.7556 12.6229 23.999 12.2434C24.2293 11.901 24.5727 11.6504 24.969 11.5356V9.45571C24.3036 9.23221 23.637 8.66291 23.637 7.28214V3.16229C23.637 1.99126 23.421 1.16479 22.9965 0.691639C22.572 0.218479 21.8242 0 20.7493 0H19.3511V2.05867H19.3985C19.6752 2.05552 19.9517 2.07137 20.2262 2.10611C20.4744 2.13331 20.7083 2.23666 20.8954 2.40199C21.0708 2.57771 21.1858 2.80462 21.2237 3.04993C21.2693 3.31836 21.2898 3.59044 21.2849 3.86267V7.50061C21.28 7.86402 21.3 8.22733 21.3448 8.588C21.3745 8.81978 21.439 9.04577 21.5358 9.25841C21.6256 9.44651 21.7501 9.61601 21.9029 9.75781C22.1169 9.95411 22.3438 10.136 22.582 10.3021L23.0477 10.6317L22.572 10.9463C22.3387 11.095 22.1231 11.2696 21.9291 11.4669C21.7734 11.6304 21.6445 11.8175 21.5471 12.0212C21.4442 12.2433 21.376 12.48 21.3448 12.7228C21.3019 13.0585 21.2819 13.3969 21.2849 13.7353V17.3732C21.2893 17.6384 21.2688 17.9035 21.2237 18.1648C21.1939 18.4067 21.084 18.6317 20.9116 18.804C20.7393 18.9764 20.5144 19.0862 20.2724 19.1161C19.9902 19.162 19.7044 19.1825 19.4185 19.1772H19.3511V21.2272H20.8167Z" fill="white"/>
<g filter="url(#filter0_d_8_2)">
<path d="M34.049 17H29.714L29.544 15.589C29.6913 15.3963 30.003 15.2093 30.479 15.028V7.259C30.0143 7.089 29.7027 6.89633 29.544 6.681L29.714 5.27H33.505C35.3297 5.27 36.7747 5.78 37.84 6.8C38.9167 7.82 39.455 9.32167 39.455 11.305C39.455 13.277 38.9677 14.722 37.993 15.64C37.0297 16.5467 35.715 17 34.049 17ZM32.927 15.147H34.151C35.001 15.147 35.6697 14.892 36.157 14.382C36.6557 13.8607 36.905 12.8577 36.905 11.373C36.905 8.53967 35.834 7.123 33.692 7.123H32.927V15.147ZM45.3128 17.136C43.9755 17.136 42.9838 16.779 42.3378 16.065C41.6918 15.351 41.3688 14.2743 41.3688 12.835C41.3688 11.3843 41.7258 10.2793 42.4398 9.52C43.1652 8.74933 44.2022 8.364 45.5508 8.364C46.8995 8.364 47.8968 8.704 48.5428 9.384C49.2002 10.064 49.5288 11.1293 49.5288 12.58C49.5288 14.0193 49.1605 15.1413 48.4238 15.946C47.6985 16.7393 46.6615 17.136 45.3128 17.136ZM43.8168 12.682C43.8168 14.4953 44.3608 15.402 45.4488 15.402C46.0042 15.402 46.4122 15.198 46.6728 14.79C46.9448 14.3707 47.0808 13.6907 47.0808 12.75C47.0808 10.982 46.5255 10.098 45.4148 10.098C44.8708 10.098 44.4685 10.2963 44.2078 10.693C43.9472 11.0783 43.8168 11.7413 43.8168 12.682ZM54.5145 6.358V8.5H56.9455V9.928H54.5145V14.229C54.5145 14.5917 54.5655 14.858 54.6675 15.028C54.7695 15.1867 55.0131 15.266 55.3985 15.266C55.7838 15.266 56.1975 15.181 56.6395 15.011L57.1495 16.337C56.2768 16.779 55.3815 17 54.4635 17C53.5568 17 52.9391 16.8073 52.6105 16.422C52.2931 16.0253 52.1345 15.453 52.1345 14.705V9.928H51.3695L51.1825 8.891C51.3638 8.67567 51.7378 8.46033 52.3045 8.245C52.4405 7.31567 52.7635 6.68667 53.2735 6.358H54.5145ZM58.9357 8.5C59.559 8.364 60.12 8.296 60.6187 8.296C61.1173 8.296 61.531 8.30733 61.8597 8.33V9.18C62.1317 8.95333 62.4717 8.76067 62.8797 8.602C63.2877 8.44333 63.656 8.364 63.9847 8.364C65.2767 8.364 66.138 8.687 66.5687 9.333C66.852 9.061 67.226 8.83433 67.6907 8.653C68.1553 8.46033 68.586 8.364 68.9827 8.364C70.2293 8.364 71.068 8.64733 71.4987 9.214C71.9293 9.76933 72.1447 10.8177 72.1447 12.359V15.113C72.5867 15.283 72.8983 15.4757 73.0797 15.691L72.9097 17H68.9997L68.8297 15.691C68.9883 15.4757 69.3 15.283 69.7647 15.113V11.747C69.7647 11.1237 69.6797 10.71 69.5097 10.506C69.3397 10.302 68.9997 10.2 68.4897 10.2C67.991 10.2 67.515 10.387 67.0617 10.761C67.1183 11.1463 67.1467 11.679 67.1467 12.359V15.113C67.5887 15.283 67.9003 15.4757 68.0817 15.691L67.9117 17H64.0017L63.8317 15.691C63.9903 15.4757 64.302 15.283 64.7667 15.113V11.747C64.7667 11.1237 64.6817 10.71 64.5117 10.506C64.3417 10.302 64.0073 10.2 63.5087 10.2C63.01 10.2 62.534 10.3813 62.0807 10.744V15.113C62.5227 15.283 62.8343 15.4757 63.0157 15.691L62.8457 17H58.9357L58.7657 15.691C58.9243 15.4757 59.236 15.283 59.7007 15.113V10.387C59.304 10.251 58.9923 10.0583 58.7657 9.809L58.9357 8.5ZM74.8813 8.5C75.5159 8.35267 76.1053 8.279 76.6493 8.279C77.1933 8.279 77.6523 8.296 78.0263 8.33V15.113C78.4683 15.283 78.7799 15.4757 78.9613 15.691L78.7913 17H74.8813L74.7113 15.691C74.8699 15.4757 75.1816 15.283 75.6463 15.113V10.387C75.2496 10.251 74.9379 10.0583 74.7113 9.809L74.8813 8.5ZM76.8023 7.327C75.8616 7.327 75.3913 6.902 75.3913 6.052C75.3913 5.19067 75.8616 4.76 76.8023 4.76C77.7543 4.76 78.2303 5.19067 78.2303 6.052C78.2303 6.902 77.7543 7.327 76.8023 7.327ZM80.8311 8.5C81.4545 8.364 82.0155 8.296 82.5141 8.296C83.0128 8.296 83.4265 8.30733 83.7551 8.33V9.18C84.0385 8.942 84.4125 8.74933 84.8771 8.602C85.3531 8.44333 85.8065 8.364 86.2371 8.364C87.3478 8.364 88.1241 8.62467 88.5661 9.146C89.0195 9.66733 89.2461 10.5683 89.2461 11.849V15.113C89.6881 15.283 89.9998 15.4757 90.1811 15.691L90.0111 17H86.1011L85.9311 15.691C86.0898 15.4757 86.4015 15.283 86.8661 15.113V11.747C86.8661 11.135 86.7641 10.727 86.5601 10.523C86.3675 10.3077 86.0161 10.2 85.5061 10.2C84.9961 10.2 84.4861 10.3813 83.9761 10.744V15.113C84.4181 15.283 84.7298 15.4757 84.9111 15.691L84.7411 17H80.8311L80.6611 15.691C80.8198 15.4757 81.1315 15.283 81.5961 15.113V10.387C81.1995 10.251 80.8878 10.0583 80.6611 9.809L80.8311 8.5ZM96.2115 4.93C96.8575 4.78267 97.4752 4.709 98.0645 4.709C98.6538 4.709 99.1582 4.726 99.5775 4.76V14.96C99.9175 15.0167 100.229 15.113 100.512 15.249V16.592C99.8325 16.9547 98.9712 17.136 97.9285 17.136C97.8152 17.0793 97.7018 16.9773 97.5885 16.83C97.4865 16.6827 97.4298 16.541 97.4185 16.405C97.1692 16.609 96.8462 16.7847 96.4495 16.932C96.0528 17.068 95.6618 17.136 95.2765 17.136C94.0525 17.136 93.1628 16.8073 92.6075 16.15C92.0635 15.4813 91.7915 14.3933 91.7915 12.886C91.7915 11.1747 92.2108 9.97333 93.0495 9.282C93.7862 8.67 94.6928 8.364 95.7695 8.364C96.2455 8.364 96.7215 8.42067 97.1975 8.534V6.851C96.6762 6.70367 96.2908 6.49967 96.0415 6.239L96.2115 4.93ZM95.6335 15.402C96.2795 15.402 96.8008 15.2093 97.1975 14.824V10.268C96.7328 10.1547 96.2398 10.098 95.7185 10.098C95.1972 10.098 94.8175 10.3303 94.5795 10.795C94.3528 11.2483 94.2395 11.934 94.2395 12.852C94.2395 13.7587 94.3528 14.4103 94.5795 14.807C94.8062 15.2037 95.1575 15.402 95.6335 15.402ZM102.207 4.93C102.842 4.78267 103.431 4.709 103.975 4.709C104.519 4.709 104.978 4.726 105.352 4.76V15.113C105.794 15.283 106.106 15.4757 106.287 15.691L106.117 17H102.207L102.037 15.691C102.196 15.4757 102.508 15.283 102.972 15.113V6.817C102.576 6.681 102.264 6.48833 102.037 6.239L102.207 4.93ZM108.349 9.758C108.349 9.588 108.355 9.40667 108.366 9.214C109.42 8.64733 110.554 8.364 111.766 8.364C112.979 8.364 113.846 8.59633 114.367 9.061C114.9 9.51433 115.166 10.2737 115.166 11.339V14.96C115.563 15.0393 115.875 15.1357 116.101 15.249V16.728C115.523 17 114.696 17.136 113.619 17.136C113.506 16.8413 113.41 16.4843 113.33 16.065C112.843 16.779 111.959 17.136 110.678 17.136C109.919 17.136 109.267 16.915 108.723 16.473C108.191 16.031 107.924 15.4303 107.924 14.671C107.924 13.9117 108.174 13.3167 108.672 12.886C109.182 12.444 109.936 12.223 110.933 12.223H112.786V11.407C112.786 10.523 112.316 10.081 111.375 10.081C111.024 10.081 110.735 10.115 110.508 10.183C110.486 10.659 110.418 11.0273 110.304 11.288H108.638C108.446 10.8913 108.349 10.3813 108.349 9.758ZM111.409 15.402C111.987 15.402 112.446 15.232 112.786 14.892V13.498H111.596C110.78 13.498 110.372 13.8097 110.372 14.433C110.372 14.7163 110.457 14.9487 110.627 15.13C110.809 15.3113 111.069 15.402 111.409 15.402ZM117.371 4.93C118.006 4.78267 118.595 4.709 119.139 4.709C119.683 4.709 120.142 4.726 120.516 4.76V9.01C120.754 8.84 121.072 8.69267 121.468 8.568C121.865 8.432 122.245 8.364 122.607 8.364C123.843 8.364 124.71 8.68133 125.208 9.316C125.707 9.95067 125.956 11.033 125.956 12.563C125.956 13.413 125.837 14.1497 125.599 14.773C125.373 15.385 125.061 15.8553 124.664 16.184C123.916 16.8187 123.032 17.136 122.012 17.136C121.242 17.136 120.482 16.9433 119.734 16.558C119.519 16.8527 119.27 17 118.986 17H118.136V6.817C117.74 6.681 117.428 6.48833 117.201 6.239L117.371 4.93ZM121.876 15.402C122.964 15.402 123.508 14.4897 123.508 12.665C123.508 11.7017 123.412 11.05 123.219 10.71C123.038 10.3587 122.715 10.183 122.25 10.183C121.548 10.183 120.97 10.37 120.516 10.744V15.113C121.004 15.3057 121.457 15.402 121.876 15.402ZM131.279 9.894C130.531 9.894 130.157 10.115 130.157 10.557C130.157 10.9763 130.548 11.288 131.33 11.492L132.673 11.849C134.056 12.2117 134.747 13.0107 134.747 14.246C134.747 15.096 134.447 15.793 133.846 16.337C133.257 16.8697 132.311 17.136 131.007 17.136C129.715 17.136 128.707 16.9547 127.981 16.592C127.97 16.4673 127.964 16.3427 127.964 16.218C127.964 15.5947 128.089 15.0337 128.338 14.535H129.749C129.897 14.807 129.993 15.0903 130.038 15.385C130.265 15.453 130.588 15.487 131.007 15.487C132.005 15.487 132.503 15.2037 132.503 14.637C132.503 14.4557 132.435 14.3083 132.299 14.195C132.163 14.0703 131.897 13.9513 131.5 13.838L130.157 13.447C129.466 13.2543 128.928 12.971 128.542 12.597C128.157 12.2117 127.964 11.6507 127.964 10.914C127.964 10.166 128.265 9.554 128.865 9.078C129.466 8.602 130.322 8.364 131.432 8.364C132.554 8.364 133.501 8.52833 134.271 8.857C134.283 8.97033 134.288 9.08367 134.288 9.197C134.288 9.78633 134.164 10.3303 133.914 10.829H132.52C132.373 10.5683 132.277 10.2963 132.231 10.013C131.914 9.93367 131.597 9.894 131.279 9.894Z" fill="white"/>
</g>
<defs>
<filter id="filter0_d_8_2" x="25.544" y="4.709" width="113.203" height="20.427" filterUnits="userSpaceOnUse" color-interpolation-filters="sRGB">
<feFlood flood-opacity="0" result="BackgroundImageFix"/>
<feColorMatrix in="SourceAlpha" type="matrix" values="0 0 0 0 0 0 0 0 0 0 0 0 0 0 0 0 0 0 127 0" result="hardAlpha"/>
<feOffset dy="4"/>
<feGaussianBlur stdDeviation="2"/>
<feComposite in2="hardAlpha" operator="out"/>
<feColorMatrix type="matrix" values="0 0 0 0 0 0 0 0 0 0 0 0 0 0 0 0 0 0 0.25 0"/>
<feBlend mode="normal" in2="BackgroundImageFix" result="effect1_dropShadow_8_2"/>
<feBlend mode="normal" in="SourceGraphic" in2="effect1_dropShadow_8_2" result="shape"/>
</filter>
</defs>
</svg>
