<svg width="25" height="23" viewBox="0 0 25 23" fill="none" xmlns="http://www.w3.org/2000/svg">
<g clip-path="url(#clip0_1_2)">
<path d="M11.4981 5.99627C12.3255 5.99627 12.9963 5.32552 12.9963 4.49813C12.9963 3.67074 12.3255 3 11.4981 3C10.6707 3 10 3.67074 10 4.49813C10 5.32552 10.6707 5.99627 11.4981 5.99627Z" fill="white"/>
<path d="M9.23836 18.9435C10.0657 18.9435 10.7365 18.2727 10.7365 17.4454C10.7365 16.6181 10.0657 15.9473 9.23836 15.9473C8.41097 15.9473 7.74023 16.6181 7.74023 17.4454C7.74023 18.2727 8.41097 18.9435 9.23836 18.9435Z" fill="white"/>
<path d="M7.9901 6.20969C8.26589 6.20969 8.48947 5.9861 8.48947 5.71031C8.48947 5.43452 8.26589 5.21094 7.9901 5.21094C7.71431 5.21094 7.49072 5.43452 7.49072 5.71031C7.49072 5.9861 7.71431 6.20969 7.9901 6.20969Z" fill="white"/>
<path d="M7.36574 13.2022C7.5726 13.2022 7.74027 13.0345 7.74027 12.8277C7.74027 12.6208 7.5726 12.4531 7.36574 12.4531C7.15889 12.4531 6.99121 12.6208 6.99121 12.8277C6.99121 13.0345 7.15889 13.2022 7.36574 13.2022Z" fill="white"/>
<path d="M16.3745 6.749C16.5814 6.749 16.7491 6.5814 16.7491 6.3745C16.7491 6.1676 16.5814 6 16.3745 6C16.1677 6 16 6.1676 16 6.3745C16 6.5814 16.1677 6.749 16.3745 6.749Z" fill="white"/>
<path d="M12.3745 19.749C12.5814 19.749 12.7491 19.5814 12.7491 19.3745C12.7491 19.1676 12.5814 19 12.3745 19C12.1677 19 12 19.1676 12 19.3745C12 19.5814 12.1677 19.749 12.3745 19.749Z" fill="white"/>
<path d="M10.4993 13.9987C10.7751 13.9987 10.9987 13.7751 10.9987 13.4994C10.9987 13.2236 10.7751 13 10.4993 13C10.2235 13 10 13.2236 10 13.4994C10 13.7751 10.2235 13.9987 10.4993 13.9987Z" fill="white"/>
<path d="M12.8739 8.7478C13.3565 8.7478 13.7478 8.3566 13.7478 7.8739C13.7478 7.3913 13.3565 7 12.8739 7C12.3913 7 12 7.3913 12 7.8739C12 8.3566 12.3913 8.7478 12.8739 8.7478Z" fill="white"/>
<path d="M12.749 12.4981C13.1628 12.4981 13.4981 12.1628 13.4981 11.7491C13.4981 11.3354 13.1628 11 12.749 11C12.3353 11 12 11.3354 12 11.7491C12 12.1628 12.3353 12.4981 12.749 12.4981Z" fill="white"/>
<path d="M15.0599 18.1199C16.1976 18.1199 17.1198 17.1976 17.1198 16.0599C17.1198 14.9223 16.1976 14 15.0599 14C13.9222 14 13 14.9223 13 16.0599C13 17.1976 13.9222 18.1199 15.0599 18.1199Z" fill="white"/>
<path d="M9.1236 11.2472C9.7442 11.2472 10.2472 10.7441 10.2472 10.1236C10.2472 9.50304 9.7442 9 9.1236 9C8.5031 9 8 9.50304 8 10.1236C8 10.7441 8.5031 11.2472 9.1236 11.2472Z" fill="white"/>
<path d="M16.8727 12.2453C17.9069 12.2453 18.7453 11.4068 18.7453 10.3726C18.7453 9.3384 17.9069 8.5 16.8727 8.5C15.8384 8.5 15 9.3384 15 10.3726C15 11.4068 15.8384 12.2453 16.8727 12.2453Z" fill="white"/>
<path d="M4.1523 22.0652C3.69621 22.0755 3.24109 22.0187 2.80149 21.8967C2.4883 21.8083 2.20543 21.6355 1.98377 21.3973C1.7492 21.1268 1.58269 20.8039 1.49813 20.456C1.37485 19.9478 1.31779 19.4258 1.32834 18.9029V14.7831C1.32834 14.0166 1.20974 13.4585 0.966291 13.079C0.736285 12.7387 0.394429 12.4896 0 12.3749V10.2937C0.665417 10.0702 1.33208 9.50096 1.33208 8.12019V4.00034C1.33208 2.82931 1.54806 2.00284 1.97253 1.52969C2.397 1.05653 3.14481 0.841797 4.21722 0.841797H5.61797V2.89673H5.57053C5.29386 2.89357 5.01731 2.90942 4.74281 2.94417C4.49456 2.97136 4.26082 3.07472 4.07365 3.24005C3.8983 3.41576 3.78332 3.64267 3.74531 3.88799C3.69971 4.15641 3.67923 4.4285 3.68414 4.70072V8.33867C3.68777 8.70216 3.6665 9.06547 3.62047 9.42606C3.59073 9.65783 3.52634 9.88382 3.42946 10.0965C3.33975 10.2846 3.2152 10.4541 3.06242 10.5958C2.84839 10.7922 2.62151 10.974 2.38327 11.1402L1.9176 11.4697L2.39326 11.7844C2.62656 11.933 2.84226 12.1077 3.0362 12.305C3.19194 12.4685 3.32087 12.6555 3.41822 12.8593C3.52062 13.0799 3.58882 13.3148 3.62047 13.5559C3.66451 13.8936 3.68536 14.234 3.68289 14.5746V18.2126C3.67851 18.4777 3.699 18.7428 3.74406 19.0041C3.78042 19.2428 3.88838 19.4647 4.05368 19.6408C4.23014 19.8092 4.45421 19.9189 4.69537 19.9554C4.97761 20.0013 5.2634 20.0218 5.54931 20.0166H5.61797V22.0652H4.1523Z" fill="white"/>
<path d="M20.8167 22.0651C21.2728 22.0753 21.728 22.0185 22.1675 21.8965C22.4808 21.8081 22.7637 21.6354 22.9853 21.3972C23.2181 21.1269 23.3833 20.8052 23.4672 20.4583C23.5904 19.9501 23.6476 19.4281 23.637 18.9053V14.7854C23.637 14.0189 23.7556 13.4608 23.999 13.0813C24.2293 12.7389 24.5727 12.4883 24.969 12.3735V10.2936C24.3036 10.0701 23.637 9.5008 23.637 8.12003V4.00018C23.637 2.82915 23.421 2.00268 22.9965 1.52953C22.572 1.05637 21.8242 0.837891 20.7493 0.837891H19.3511V2.89656H19.3985C19.6752 2.89341 19.9517 2.90926 20.2262 2.944C20.4744 2.9712 20.7083 3.07455 20.8954 3.23988C21.0708 3.4156 21.1858 3.64251 21.2237 3.88782C21.2693 4.15625 21.2898 4.42833 21.2849 4.70056V8.3385C21.28 8.70191 21.3 9.06522 21.3448 9.42589C21.3745 9.65767 21.439 9.88366 21.5358 10.0963C21.6256 10.2844 21.7501 10.4539 21.9029 10.5957C22.1169 10.792 22.3438 10.9739 22.582 11.14L23.0477 11.4696L22.572 11.7842C22.3387 11.9329 22.1231 12.1075 21.9291 12.3048C21.7734 12.4683 21.6445 12.6554 21.5471 12.8591C21.4442 13.0812 21.376 13.3179 21.3448 13.5607C21.3019 13.8964 21.2819 14.2348 21.2849 14.5732V18.2111C21.2893 18.4763 21.2688 18.7414 21.2237 19.0027C21.1939 19.2446 21.084 19.4696 20.9116 19.6419C20.7393 19.8143 20.5144 19.9241 20.2724 19.954C19.9902 19.9999 19.7044 20.0204 19.4185 20.0151H19.3511V22.0651H20.8167Z" fill="white"/>
</g>
<defs>
<clipPath id="clip0_1_2">
<rect width="25" height="23" fill="white"/>
</clipPath>
</defs>
</svg>
